<?xml version="1.0" encoding="UTF-8"?>
<svg version="1.1" xmlns="http://www.w3.org/2000/svg" width="2500" height="2500">
<path d="M0 0 C2.07344586 -0.00702076 4.14689149 -0.01410759 6.22033691 -0.02125549 C12.81095693 -0.04066083 19.4015418 -0.04568949 25.9921875 -0.046875 C27.11443474 -0.04731686 28.23668198 -0.04775871 29.39293671 -0.04821396 C61.68928385 -0.05488549 93.86503746 0.03478253 126.05499268 2.94989014 C129.0175449 3.21666451 131.98102211 3.47065535 134.94482422 3.72314453 C181.26359666 7.71320696 227.26306492 14.17233428 272.8671875 23.203125 C273.73200745 23.3743689 274.59682739 23.54561279 275.487854 23.7220459 C366.52842757 41.8428162 455.90922962 70.20597814 560.8671875 118.203125 C562.60258789 119.02562744 562.60258789 119.02562744 564.37304688 119.86474609 C590.34034324 132.17756062 615.96722432 145.11539698 640.86669922 159.47998047 C644.18219163 161.38402811 647.51006847 163.26563734 650.83984375 165.14453125 C663.66032128 172.38969437 676.31932161 179.81065092 688.68994141 187.80712891 C690.83461143 189.18223803 692.99357731 190.53081506 695.16015625 191.87109375 C741.32039172 220.4929971 785.65631998 252.93426652 827.02490234 288.11279297 C830.4996011 291.06293097 834.01176545 293.95980729 837.5546875 296.828125 C842.00622558 300.45146995 846.29101205 304.22276372 850.53515625 308.0859375 C852.62542639 309.98363669 854.73704865 311.85045915 856.8671875 313.703125 C876.76328948 331.05252592 896.00578952 349.15924543 914.64331055 367.84887695 C916.95571473 370.16671338 919.27351648 372.47905804 921.59179688 374.79101562 C923.09146707 376.29134564 924.59082756 377.7919853 926.08984375 379.29296875 C926.76910416 379.97020493 927.44836456 380.6474411 928.14820862 381.34519958 C932.05729921 385.27328948 935.78425273 389.30764732 939.39573669 393.51148987 C941.13106487 395.50648834 942.96539809 397.36691453 944.8671875 399.203125 C948.03808748 402.33158464 950.9928871 405.57167852 953.89453125 408.94921875 C955.8320413 411.16296786 957.8186314 413.32554748 959.81958008 415.48193359 C964.64903645 420.68849699 969.2315901 426.02047912 973.6875 431.5546875 C975.84476149 434.17587619 978.0802975 436.69466781 980.3671875 439.203125 C984.59000573 443.84749823 988.56316406 448.65704292 992.50976562 453.53662109 C994.06091686 455.44096612 995.62707679 457.33235631 997.1953125 459.22265625 C1003.75561968 467.13327162 1010.20734641 475.09052634 1016.41064453 483.28564453 C1018.12637062 485.5443292 1019.85407478 487.79362737 1021.58203125 490.04296875 C1030.21034519 501.29085298 1038.67334467 512.63478774 1046.8671875 524.203125 C1047.45371094 525.02876953 1048.04023438 525.85441406 1048.64453125 526.70507812 C1071.6319085 559.14498154 1093.14704797 592.68168891 1112.8671875 627.203125 C1113.42728516 628.18297363 1113.98738281 629.16282227 1114.56445312 630.17236328 C1135.14700164 666.29865302 1154.06876823 703.2168002 1170.97589111 741.20239258 C1171.82771877 743.11452779 1172.68272928 745.02520705 1173.53857422 746.93554688 C1188.74890223 780.99114295 1201.91671153 815.88148196 1213.8671875 851.203125 C1214.10290466 851.89696289 1214.33862183 852.59080078 1214.58148193 853.30566406 C1246.99739851 948.78434949 1266.93364428 1048.72204839 1278.0703125 1222.3359375 C1278.07733326 1224.40938336 1278.08442009 1226.48282899 1278.09156799 1228.55627441 C1278.11097333 1235.14689443 1278.11600199 1241.7374793 1278.1171875 1248.328125 C1278.11762936 1249.45037224 1278.11807121 1250.57261948 1278.11852646 1251.72887421 C1278.12519799 1284.02522135 1278.03552997 1316.20097496 1275.12042236 1348.39093018 C1274.85364799 1351.3534824 1274.59965715 1354.31695961 1274.34716797 1357.28076172 C1270.35710554 1403.59953416 1263.89797822 1449.59900242 1254.8671875 1495.203125 C1254.6959436 1496.06794495 1254.52469971 1496.93276489 1254.3482666 1497.8237915 C1236.19990644 1589.00297933 1207.90908272 1678.80561777 1160.47705078 1781.83203125 C1158.94812967 1785.03363007 1157.43488033 1788.24214569 1155.92578125 1791.453125 C1144.40728841 1815.85087092 1132.07582395 1839.87396548 1118.57421875 1863.23486328 C1116.67557864 1866.53630299 1114.80115528 1869.85109212 1112.9296875 1873.16796875 C1105.68360346 1885.99129588 1098.2612553 1898.65279361 1090.26318359 1911.02587891 C1088.88807447 1913.17054893 1087.53949744 1915.32951481 1086.19921875 1917.49609375 C1057.5773154 1963.65632922 1025.13604598 2007.99225748 989.95751953 2049.36083984 C987.00738153 2052.8355386 984.11050521 2056.34770295 981.2421875 2059.890625 C977.61884255 2064.34216308 973.84754878 2068.62694955 969.984375 2072.87109375 C968.08667581 2074.96136389 966.21985335 2077.07298615 964.3671875 2079.203125 C946.68469765 2099.48120969 928.19438604 2119.05970041 909.14599609 2138.0546875 C906.83702514 2140.35821627 904.53355973 2142.66715636 902.23046875 2144.9765625 C900.73469609 2146.47167547 899.23861386 2147.96647881 897.7421875 2149.4609375 C896.73103882 2150.47512253 896.73103882 2150.47512253 895.69946289 2151.50979614 C891.82132059 2155.36908737 887.84140522 2159.04702603 883.68212891 2162.6022644 C881.83145283 2164.2346446 880.0944593 2165.94138688 878.3671875 2167.703125 C875.42118535 2170.69546875 872.33735743 2173.45636672 869.15625 2176.1953125 C866.93145611 2178.14675287 864.75548249 2180.14496148 862.58618164 2182.15771484 C857.38011456 2186.98616985 852.0490277 2191.5681763 846.515625 2196.0234375 C843.89443631 2198.18069899 841.37564469 2200.416235 838.8671875 2202.703125 C834.22281427 2206.92594323 829.41326958 2210.89910156 824.53369141 2214.84570312 C822.62934638 2216.39685436 820.73795619 2217.96301429 818.84765625 2219.53125 C810.93704088 2226.09155718 802.97978616 2232.54328391 794.78466797 2238.74658203 C792.5259833 2240.46230812 790.27668513 2242.19001228 788.02734375 2243.91796875 C776.77945952 2252.54628269 765.43552476 2261.00928217 753.8671875 2269.203125 C753.04154297 2269.78964844 752.21589844 2270.37617188 751.36523438 2270.98046875 C718.92533096 2293.967846 685.38862359 2315.48298547 650.8671875 2335.203125 C649.88733887 2335.76322266 648.90749023 2336.32332031 647.89794922 2336.90039062 C611.77165948 2357.48293914 574.8535123 2376.40470573 536.86791992 2393.31182861 C534.95578471 2394.16365627 533.04510545 2395.01866678 531.13476562 2395.87451172 C497.07916955 2411.08483973 462.18883054 2424.25264903 426.8671875 2436.203125 C426.17334961 2436.43884216 425.47951172 2436.67455933 424.76464844 2436.91741943 C329.28596301 2469.33333601 229.34826411 2489.26958178 55.734375 2500.40625 C53.66092914 2500.41327076 51.58748351 2500.42035759 49.51403809 2500.42750549 C42.92341807 2500.44691083 36.3328332 2500.45193949 29.7421875 2500.453125 C28.61994026 2500.45356686 27.49769302 2500.45400871 26.34143829 2500.45446396 C-5.95490885 2500.46113549 -38.13066246 2500.37146747 -70.32061768 2497.45635986 C-73.2831699 2497.18958549 -76.24664711 2496.93559465 -79.21044922 2496.68310547 C-125.52922166 2492.69304304 -171.52868992 2486.23391572 -217.1328125 2477.203125 C-217.99763245 2477.0318811 -218.86245239 2476.86063721 -219.753479 2476.6842041 C-313.7513891 2457.97480377 -405.44822703 2428.20675681 -505.1328125 2382.203125 C-506.82784912 2381.40189209 -506.82784912 2381.40189209 -508.55712891 2380.58447266 C-534.56136318 2368.25986736 -560.22206722 2355.29706459 -585.15429688 2340.91308594 C-588.40349446 2339.04772693 -591.66548749 2337.20616053 -594.9296875 2335.3671875 C-617.69123936 2322.52799357 -639.63214914 2308.61872597 -661.3828125 2294.140625 C-662.26197327 2293.55583374 -663.14113403 2292.97104248 -664.04693604 2292.36853027 C-701.20466754 2267.62331889 -737.26832094 2241.22485906 -771.29052734 2212.29345703 C-774.7652261 2209.34331903 -778.27739045 2206.44644271 -781.8203125 2203.578125 C-786.27185058 2199.95478005 -790.55663705 2196.18348628 -794.80078125 2192.3203125 C-796.89105139 2190.42261331 -799.00267365 2188.55579085 -801.1328125 2186.703125 C-821.02891448 2169.35372408 -840.27141452 2151.24700457 -858.90893555 2132.55737305 C-861.22133973 2130.23953662 -863.53914148 2127.92719196 -865.85742188 2125.61523438 C-867.35709207 2124.11490436 -868.85645256 2122.6142647 -870.35546875 2121.11328125 C-871.03472916 2120.43604507 -871.71398956 2119.7588089 -872.41383362 2119.06105042 C-876.32292421 2115.13296052 -880.04987773 2111.09860268 -883.66136169 2106.89476013 C-885.39668987 2104.89976166 -887.23102309 2103.03933547 -889.1328125 2101.203125 C-892.30371248 2098.07466536 -895.2585121 2094.83457148 -898.16015625 2091.45703125 C-900.0976663 2089.24328214 -902.0842564 2087.08070252 -904.08520508 2084.92431641 C-908.91466145 2079.71775301 -913.4972151 2074.38577088 -917.953125 2068.8515625 C-920.11038649 2066.23037381 -922.3459225 2063.71158219 -924.6328125 2061.203125 C-928.85563073 2056.55875177 -932.82878906 2051.74920708 -936.77539062 2046.86962891 C-938.32654186 2044.96528388 -939.89270179 2043.07389369 -941.4609375 2041.18359375 C-948.02124468 2033.27297838 -954.47297141 2025.31572366 -960.67626953 2017.12060547 C-962.39199562 2014.8619208 -964.11969978 2012.61262263 -965.84765625 2010.36328125 C-974.47597019 1999.11539702 -982.93896967 1987.77146226 -991.1328125 1976.203125 C-991.71933594 1975.37748047 -992.30585937 1974.55183594 -992.91015625 1973.70117188 C-1015.8975335 1941.26126846 -1037.41267297 1907.72456109 -1057.1328125 1873.203125 C-1057.69291016 1872.22327637 -1058.25300781 1871.24342773 -1058.83007812 1870.23388672 C-1079.41262664 1834.10759698 -1098.33439323 1797.1894498 -1115.24151611 1759.20385742 C-1116.09334377 1757.29172221 -1116.94835428 1755.38104295 -1117.80419922 1753.47070312 C-1133.01452723 1719.41510705 -1146.18233653 1684.52476804 -1158.1328125 1649.203125 C-1158.36852966 1648.50928711 -1158.60424683 1647.81544922 -1158.84710693 1647.10058594 C-1191.26302351 1551.62190051 -1211.19926928 1451.68420161 -1222.3359375 1278.0703125 C-1222.34295826 1275.99686664 -1222.35004509 1273.92342101 -1222.35719299 1271.84997559 C-1222.37659833 1265.25935557 -1222.38162699 1258.6687707 -1222.3828125 1252.078125 C-1222.38325436 1250.95587776 -1222.38369621 1249.83363052 -1222.38415146 1248.67737579 C-1222.39082299 1216.38102865 -1222.30115497 1184.20527504 -1219.38604736 1152.01531982 C-1219.11927299 1149.0527676 -1218.86528215 1146.08929039 -1218.61279297 1143.12548828 C-1214.62273054 1096.80671584 -1208.16360322 1050.80724758 -1199.1328125 1005.203125 C-1198.9615686 1004.33830505 -1198.79032471 1003.47348511 -1198.6138916 1002.5824585 C-1180.4931213 911.54188493 -1152.12995936 822.16108288 -1104.1328125 717.203125 C-1103.58447754 716.04619141 -1103.03614258 714.88925781 -1102.47119141 713.69726562 C-1090.09687542 687.60026482 -1077.08536823 661.85390678 -1062.64453125 636.83251953 C-1061.16813866 634.26456925 -1059.71003891 631.68714933 -1058.2578125 629.10546875 C-1044.12798481 604.03455222 -1028.82094146 579.89264352 -1012.72412109 556.05126953 C-1010.07584228 552.12525412 -1007.45350552 548.18222167 -1004.83203125 544.23828125 C-1001.41144947 539.09817288 -997.95851168 533.98681833 -994.3828125 528.953125 C-993.89095459 528.25896484 -993.39909668 527.56480469 -992.89233398 526.84960938 C-974.37185991 500.81488257 -954.92277132 475.38736822 -934.22314453 451.04541016 C-931.27300653 447.5707114 -928.37613021 444.05854705 -925.5078125 440.515625 C-921.88446755 436.06408692 -918.11317378 431.77930045 -914.25 427.53515625 C-912.35230081 425.44488611 -910.48547835 423.33326385 -908.6328125 421.203125 C-890.95032265 400.92504031 -872.46001104 381.34654959 -853.41162109 362.3515625 C-851.10265014 360.04803373 -848.79918473 357.73909364 -846.49609375 355.4296875 C-845.00032109 353.93457453 -843.50423886 352.43977119 -842.0078125 350.9453125 C-841.33371338 350.26918915 -840.65961426 349.5930658 -839.96508789 348.89645386 C-836.08694559 345.03716263 -832.10703022 341.35922397 -827.94775391 337.8039856 C-826.09707783 336.1716054 -824.3600843 334.46486312 -822.6328125 332.703125 C-819.68681035 329.71078125 -816.60298243 326.94988328 -813.421875 324.2109375 C-811.19708111 322.25949713 -809.02110749 320.26128852 -806.85180664 318.24853516 C-801.64573956 313.42008015 -796.3146527 308.8380737 -790.78125 304.3828125 C-788.16006131 302.22555101 -785.64126969 299.990015 -783.1328125 297.703125 C-778.48843927 293.48030677 -773.67889458 289.50714844 -768.79931641 285.56054688 C-766.89497138 284.00939564 -765.00358119 282.44323571 -763.11328125 280.875 C-755.20266588 274.31469282 -747.24541116 267.86296609 -739.05029297 261.65966797 C-736.7916083 259.94394188 -734.54231013 258.21623772 -732.29296875 256.48828125 C-721.04508452 247.85996731 -709.70114976 239.39696783 -698.1328125 231.203125 C-697.30716797 230.61660156 -696.48152344 230.03007812 -695.63085938 229.42578125 C-663.19095596 206.438404 -629.65424859 184.92326453 -595.1328125 165.203125 C-594.15296387 164.64302734 -593.17311523 164.08292969 -592.16357422 163.50585938 C-556.04310679 142.92662806 -519.13119605 124.0013745 -481.14971924 107.10089111 C-479.2056253 106.23553546 -477.26265841 105.36769114 -475.31982422 104.49951172 C-395.60931729 68.94542074 -311.46798313 42.56895272 0 0 Z " fill="#FEFEFE" transform="translate(1222.1328125,-0.203125)"/>
<path d="M0 0 C3.36311829 0.61458914 6.73168555 1.19480078 10.10058594 1.77685547 C27.23803577 4.75939285 44.12973624 8.28516185 61 12.56103516 C64.26440336 13.38161889 67.53227359 14.18331477 70.80403137 14.9737854 C73.58716207 15.64657987 76.36860768 16.32618852 79.14987183 17.00665283 C81.06483505 17.47364651 82.98123172 17.93475071 84.89770508 18.39550781 C96.35021676 21.22714378 107.52811269 24.82437551 118.73339844 28.49951172 C119.61959869 28.78965149 120.50579895 29.07979126 121.41885376 29.37872314 C208.41567464 57.93857614 289.71687953 97.90028217 388.43603516 168.72949219 C390.44617226 170.27821631 392.46361785 171.81622418 394.48730469 173.34716797 C401.0386903 178.31318536 407.36133854 183.49551887 413.60449219 188.83935547 C416.50391427 191.3173032 419.45521255 193.72610189 422.42089844 196.12451172 C426.87674618 199.75136453 431.16571399 203.52613842 435.41308594 207.39404297 C437.43494028 209.22868857 439.48018366 211.02719958 441.54589844 212.81201172 C449.87241763 220.07664688 457.93015485 227.61428648 465.68652344 235.48388672 C467.66170487 237.42891271 469.69506218 239.2543154 471.79589844 241.06201172 C477.27114029 245.77680332 482.34323605 250.82557226 487.04589844 256.31201172 C489.95592215 259.70149014 493.05525327 262.86374898 496.23339844 265.99951172 C499.95939535 269.68097231 503.53196092 273.43246322 506.93261719 277.41748047 C509.10664046 279.9310475 511.35730332 282.36727401 513.60839844 284.81201172 C517.69900404 289.29748724 521.58157687 293.90531716 525.39355469 298.62841797 C527.47059657 301.17704199 529.58288314 303.68656736 531.71875 306.18554688 C537.93718183 313.46369038 543.88275895 320.9237979 549.73339844 328.49951172 C550.33845215 329.27858887 550.94350586 330.05766602 551.56689453 330.86035156 C560.37295656 342.21189876 568.85122855 353.70523779 576.82958984 365.65332031 C578.62482704 368.33719761 580.43022757 371.01390361 582.2381897 373.68920898 C592.83179598 389.37475261 603.14233366 405.1739104 612.73339844 421.49951172 C613.23210449 422.34674805 613.73081055 423.19398438 614.24462891 424.06689453 C650.36087976 485.70561269 681.9496083 553.25630345 699.48730469 622.75341797 C700.43199695 626.48130663 701.53487627 630.14159205 702.68261719 633.81201172 C715.28541443 674.3418301 722.28649234 716.91222652 727.48339844 758.93701172 C727.59058197 759.79783356 727.6977655 760.6586554 727.80819702 761.54556274 C728.1174326 764.04905408 728.41899531 766.55334646 728.71777344 769.05810547 C728.80607925 769.77386749 728.89438507 770.48962952 728.98536682 771.2270813 C729.8908453 778.98731866 730.2435133 786.66134959 730.73339844 794.49951172 C584.54339844 794.49951172 438.35339844 794.49951172 287.73339844 794.49951172 C286.08339844 786.57951172 284.43339844 778.65951172 282.73339844 770.49951172 C268.20681931 705.32621077 238.79310619 644.37097089 196.73339844 592.49951172 C195.97671875 591.54947266 195.22003906 590.59943359 194.44042969 589.62060547 C189.65172518 583.66227048 184.6125932 577.99498063 179.41308594 572.39794922 C177.02534952 569.81529555 174.687062 567.19775179 172.35839844 564.56201172 C165.04748716 556.42419306 157.33144324 548.47876956 148.97558594 541.40576172 C147.16471616 539.86620692 145.38703321 538.30306883 143.61621094 536.71826172 C120.16801978 515.85125472 93.69664773 497.80845089 66.13623047 482.80810547 C63.81457306 481.5437198 61.50639201 480.25709163 59.19824219 478.96826172 C36.82145031 466.65387511 12.86195267 457.70476264 -11.26660156 449.49951172 C-12.3174292 449.14163574 -13.36825684 448.78375977 -14.45092773 448.41503906 C-50.480939 436.26449572 -90.78113132 429.36734327 -128.79003906 429.33154297 C-130.05264557 429.32821457 -131.31525208 429.32488617 -132.61611938 429.32145691 C-135.27683057 429.31642184 -137.93743944 429.31361135 -140.59814453 429.31420898 C-144.59578051 429.31432955 -148.59322948 429.29388215 -152.59082031 429.27490234 C-173.00778435 429.22860537 -192.88481124 430.48100714 -213.01660156 433.87451172 C-213.67459747 433.98344757 -214.33259338 434.09238342 -215.01052856 434.20462036 C-224.75273811 435.81804428 -234.42615425 437.59590555 -244.01660156 439.95605469 C-246.48966338 440.55338928 -248.970851 441.10627594 -251.45410156 441.65966797 C-278.6133263 447.88444174 -305.15132744 457.48291553 -330.26660156 469.49951172 C-331.40709961 470.04365723 -332.54759766 470.58780273 -333.72265625 471.1484375 C-349.02756713 478.50600863 -363.94990245 486.34123792 -378.26660156 495.49951172 C-379.02054199 495.98097656 -379.77448242 496.46244141 -380.55126953 496.95849609 C-396.16453621 507.00301981 -411.33291322 517.80259494 -425.35253906 529.98779297 C-428.14773152 532.39705402 -431.00440705 534.70195552 -433.89160156 536.99951172 C-438.83401327 541.01387232 -443.27558241 545.40805993 -447.71972656 549.95263672 C-449.81590855 552.04881871 -451.93152818 553.9775703 -454.20410156 555.87451172 C-459.54208105 560.43585894 -464.14361845 565.72071757 -468.83984375 570.92431641 C-470.099715 572.31526256 -471.37353437 573.69354744 -472.64941406 575.06982422 C-478.44790137 581.36710613 -483.7166559 588.01449313 -488.9375 594.78955078 C-490.12601819 596.31864362 -491.33926409 597.82844174 -492.55566406 599.33544922 C-506.42310434 616.72931761 -518.6713177 635.96102344 -529.26660156 655.49951172 C-529.75322266 656.39589355 -530.23984375 657.29227539 -530.74121094 658.21582031 C-551.7689983 697.21317122 -566.4618477 738.07038426 -575.26660156 781.49951172 C-575.46237793 782.45132324 -575.6581543 783.40313477 -575.85986328 784.38378906 C-578.96061302 799.64922685 -580.72231912 815.00803019 -582.26660156 830.49951172 C-582.3502597 831.23229843 -582.43391785 831.96508514 -582.52011108 832.72007751 C-583.20869601 838.9840227 -583.44089216 845.17294314 -583.46972656 851.47216797 C-583.47669556 852.50105637 -583.48366455 853.52994476 -583.49084473 854.5900116 C-583.50820778 857.91405345 -583.51457038 861.23792633 -583.51660156 864.56201172 C-583.51760864 865.69900513 -583.51861572 866.83599854 -583.51965332 868.00744629 C-583.50416039 893.91071228 -581.86465439 919.2186159 -576.82128906 944.68212891 C-576.22853273 947.69287189 -575.66859795 950.70875248 -575.11035156 953.72607422 C-572.56776621 967.23452746 -569.40129864 980.39159646 -565.26660156 993.49951172 C-564.73075439 995.20349121 -564.73075439 995.20349121 -564.18408203 996.94189453 C-546.3888335 1053.00545784 -519.26703311 1104.42923245 -481.26660156 1149.49951172 C-480.7919043 1150.06444336 -480.31720703 1150.629375 -479.828125 1151.21142578 C-472.20501496 1160.30034854 -472.20501496 1160.30034854 -463.95239258 1168.81079102 C-462.21930811 1170.54688736 -460.64236847 1172.3596497 -459.05566406 1174.22998047 C-455.42314212 1178.40683112 -451.52219317 1182.18897089 -447.45410156 1185.93701172 C-446.74979004 1186.59024414 -446.04547852 1187.24347656 -445.31982422 1187.91650391 C-443.92722443 1189.20586529 -442.53276247 1190.49321903 -441.13623047 1191.77832031 C-439.58445376 1193.20689511 -438.03982726 1194.64323219 -436.49707031 1196.08154297 C-429.74097778 1202.29983709 -422.55069962 1207.92259749 -415.26660156 1213.49951172 C-414.50492676 1214.08571289 -413.74325195 1214.67191406 -412.95849609 1215.27587891 C-401.72275543 1223.90352355 -390.35165354 1232.10249352 -378.26660156 1239.49951172 C-377.01024902 1240.26859863 -377.01024902 1240.26859863 -375.72851562 1241.05322266 C-340.70927992 1262.35648442 -303.05815067 1280.12255167 -263.26660156 1290.49951172 C-262.40534668 1290.72944824 -261.5440918 1290.95938477 -260.65673828 1291.19628906 C-228.46073268 1299.7519098 -195.62022984 1305.58633807 -162.23535156 1305.70263672 C-160.26858459 1305.71118683 -160.26858459 1305.71118683 -158.26208496 1305.71990967 C-155.49552028 1305.73032821 -152.72898378 1305.73622737 -149.96240234 1305.73974609 C-147.19371033 1305.74408637 -144.42533777 1305.7578214 -141.65673828 1305.78076172 C-116.69052084 1305.98305649 -92.08784653 1304.43198074 -67.51660156 1299.68701172 C-66.83436523 1299.55746094 -66.15212891 1299.42791016 -65.44921875 1299.29443359 C-60.71493366 1298.39494115 -55.99002219 1297.45433666 -51.26660156 1296.49951172 C-49.66848633 1296.18554443 -49.66848633 1296.18554443 -48.03808594 1295.86523438 C-19.67972291 1290.18145873 9.01572887 1280.04518719 35.15283203 1267.71484375 C37.88341472 1266.42886072 40.62955923 1265.18057616 43.37792969 1263.93310547 C72.11990109 1250.72549684 100.20490414 1233.56827978 124.73339844 1213.49951172 C125.62929687 1212.78150391 126.52519531 1212.06349609 127.44824219 1211.32373047 C130.23245942 1209.07478599 132.98729153 1206.79482132 135.73339844 1204.49951172 C136.24950684 1204.06977051 136.76561523 1203.6400293 137.29736328 1203.19726562 C157.09289496 1186.66453881 175.69161128 1168.73214638 191.73339844 1148.49951172 C192.73355357 1147.2878506 193.73635503 1146.07837099 194.74121094 1144.87060547 C232.28819852 1099.59385176 260.59117061 1045.18362612 276.17285156 988.49902344 C276.74437192 986.46036849 277.3521414 984.43540422 277.96777344 982.40966797 C281.12420414 971.82734435 283.22587612 961.15045971 285.12207031 950.2734375 C285.41694336 948.58903564 285.41694336 948.58903564 285.71777344 946.87060547 C285.9763916 945.35358032 285.9763916 945.35358032 286.24023438 943.8059082 C286.73339844 941.49951172 286.73339844 941.49951172 287.73339844 940.49951172 C290.09017698 940.40078145 292.41763853 940.3677184 294.77494144 940.37646389 C295.52404483 940.37531005 296.27314822 940.3741562 297.04495171 940.37296739 C299.5872048 940.37029365 302.12939616 940.37482907 304.67164612 940.3792572 C306.49979589 940.37882165 308.3279456 940.37794705 310.15609497 940.37666804 C315.20474071 940.37441984 320.25336545 940.37844877 325.30200851 940.3834461 C330.73694287 940.38774578 336.17187594 940.38630452 341.60681152 940.38554382 C351.031518 940.38501828 360.45621758 940.38816823 369.88092232 940.39378166 C383.50763353 940.40189258 397.13434138 940.40451146 410.76105475 940.40576965 C432.86699082 940.40796082 454.97292337 940.41461408 477.07885742 940.42407227 C498.55867494 940.43325197 520.03849147 940.4403379 541.51831055 940.44458008 C542.18004579 940.4447116 542.84178103 940.44484313 543.52356886 940.44497864 C550.82816206 940.44642795 558.13275527 940.44781981 565.43734848 940.44918811 C620.53603434 940.45956273 675.63471622 940.47718279 730.73339844 940.49951172 C730.58738624 943.32583821 730.43833208 946.15195188 730.28759766 948.97802734 C730.24716843 949.76663147 730.2067392 950.5552356 730.16508484 951.36773682 C729.73818223 959.28816434 728.85516581 967.13278648 727.85839844 974.99951172 C727.76936249 975.71584778 727.68032654 976.43218384 727.58859253 977.17022705 C726.24213958 987.99926161 724.72411901 998.76909506 722.73339844 1009.49951172 C722.34786438 1011.61277156 721.96245837 1013.72605476 721.57714844 1015.83935547 C720.71947495 1020.52398137 719.84819355 1025.20582872 718.96777344 1029.88623047 C718.24349857 1033.73900077 717.53680096 1037.59274212 716.87402344 1041.45654297 C714.71773911 1053.77743035 711.80160654 1065.91026536 708.85839844 1078.06201172 C708.65147369 1078.92248108 708.44454895 1079.78295044 708.23135376 1080.66949463 C705.15555856 1093.41904177 701.61542186 1105.97322004 697.73339844 1118.49951172 C697.31133936 1119.87670904 696.88953235 1121.25398364 696.46801758 1122.63134766 C671.99465917 1202.18809424 637.17706813 1277.72242656 591.73339844 1347.49951172 C591.28834961 1348.18368164 590.84330078 1348.86785156 590.38476562 1349.57275391 C587.54949557 1353.91515895 584.66025784 1358.21837052 581.73339844 1362.49951172 C581.22905273 1363.23814453 580.72470703 1363.97677734 580.20507812 1364.73779297 C571.67108913 1377.18977452 562.71651626 1389.27335496 553.49023438 1401.21972656 C551.98154908 1403.17749522 550.48274748 1405.14195494 548.99121094 1407.11279297 C535.59623273 1424.74585445 521.1870138 1441.61214461 506.15136719 1457.86279297 C504.11410372 1460.0843646 502.13108791 1462.3353394 500.17089844 1464.62451172 C496.69247708 1468.64513305 492.91201199 1472.33505569 489.13183594 1476.06982422 C487.11355114 1478.11440589 485.21840326 1480.1878719 483.35839844 1482.37451172 C476.76259482 1490.06181948 469.43611709 1497.16732365 461.72558594 1503.72607422 C459.29401863 1505.8906459 457.02128762 1508.18380625 454.73339844 1510.49951172 C451.20026444 1514.07034684 447.59966749 1517.46502397 443.78417969 1520.72998047 C441.45773261 1522.73737195 439.19147158 1524.8041781 436.92089844 1526.87451172 C432.62866226 1530.74863052 428.2056117 1534.41968719 423.70996094 1538.05419922 C420.98145809 1540.29572518 418.30397747 1542.58272213 415.63647461 1544.89575195 C409.1612111 1550.50859536 402.53386202 1555.85600813 395.69042969 1561.01513672 C393.43435218 1562.72633323 391.1931538 1564.45612532 388.95214844 1566.18701172 C350.51532631 1595.80493331 309.50544696 1621.63128776 266.73339844 1644.49951172 C265.86021973 1644.9703418 264.98704102 1645.44117188 264.08740234 1645.92626953 C225.06348291 1666.93195057 184.302447 1684.25384412 142.37884521 1698.56332397 C138.33375649 1699.94421606 134.30267204 1701.35861027 130.28027344 1702.80419922 C118.71125359 1706.95120526 107.10652142 1710.50332444 95.21191406 1713.58789062 C91.85691028 1714.46714274 88.50826803 1715.36723842 85.16047668 1716.2734375 C67.53080546 1721.04373004 49.95613755 1725.62918198 31.97607422 1728.90332031 C28.3166284 1729.57613816 24.66365711 1730.28062266 21.01074219 1730.98779297 C-11.6504774 1737.28565665 -44.2766204 1741.72630516 -77.45410156 1744.12451172 C-78.73897461 1744.21830612 -78.73897461 1744.21830612 -80.04980469 1744.31399536 C-103.52941379 1746.00981373 -126.97658657 1746.73644674 -150.51660156 1746.74951172 C-152.43315552 1746.75102234 -152.43315552 1746.75102234 -154.38842773 1746.75256348 C-178.1211037 1746.74003458 -201.64261672 1745.7439466 -225.26660156 1743.49951172 C-226.03609131 1743.42690125 -226.80558105 1743.35429077 -227.59838867 1743.27947998 C-238.51663833 1742.23732587 -249.39594829 1740.95374131 -260.26660156 1739.49951172 C-261.4303833 1739.34449188 -261.4303833 1739.34449188 -262.61767578 1739.18634033 C-301.05228031 1734.03558173 -339.8549146 1727.22171711 -376.96191406 1715.77294922 C-380.73256574 1714.6235578 -384.53908205 1713.63356954 -388.35253906 1712.63623047 C-395.90453391 1710.64671131 -403.33951521 1708.35299922 -410.76660156 1705.93701172 C-411.42213013 1705.72430634 -412.07765869 1705.51160095 -412.75305176 1705.29244995 C-437.30528219 1697.31315889 -461.49406049 1688.594155 -485.26660156 1678.49951172 C-486.29914062 1678.06171387 -487.33167969 1677.62391602 -488.39550781 1677.17285156 C-523.10983673 1662.36659781 -557.19327954 1645.49864676 -589.57617188 1626.10351562 C-592.05358527 1624.62650964 -594.54320791 1623.17383657 -597.04003906 1621.72998047 C-627.14733657 1604.18896011 -655.72299215 1583.78806353 -683.26660156 1562.49951172 C-683.95447754 1561.9690625 -684.64235352 1561.43861328 -685.35107422 1560.89208984 C-692.79038181 1555.1451818 -700.04431486 1549.21829409 -707.18847656 1543.10888672 C-709.98326346 1540.7247908 -712.83711201 1538.42145657 -715.70410156 1536.12451172 C-720.71835181 1532.0486007 -725.44702443 1527.71098378 -730.14526367 1523.27929688 C-733.1195525 1520.47560317 -736.12706677 1517.72843906 -739.21191406 1515.04638672 C-750.3711732 1505.33698942 -760.92093097 1494.93981654 -771.39160156 1484.49951172 C-772.26776123 1483.62794434 -773.1439209 1482.75637695 -774.04663086 1481.85839844 C-778.44506854 1477.44939267 -782.70629729 1472.98554055 -786.74072266 1468.23974609 C-788.34449178 1466.41067948 -790.03013444 1464.70240426 -791.76660156 1462.99951172 C-795.47842622 1459.3368503 -798.87727384 1455.46014658 -802.26660156 1451.49951172 C-803.16231558 1450.4564405 -804.05815886 1449.41348027 -804.95410156 1448.37060547 C-807.00125168 1445.98633759 -809.04490116 1443.59911767 -811.08691406 1441.21044922 C-813.15630855 1438.79129792 -815.23437464 1436.38012438 -817.32128906 1433.97607422 C-823.76107845 1426.54346224 -829.95807127 1418.96426046 -835.96826172 1411.18017578 C-837.20245166 1409.58255195 -838.44333195 1407.99010312 -839.68457031 1406.39794922 C-851.02869884 1391.77827297 -861.92272319 1376.84299733 -872.26660156 1361.49951172 C-872.6782959 1360.89220215 -873.08999023 1360.28489258 -873.51416016 1359.65917969 C-915.03344222 1298.37507503 -948.38257079 1232.22906327 -973.26660156 1162.56201172 C-973.57629883 1161.69585236 -973.88599609 1160.82969299 -974.20507812 1159.93728638 C-978.26264025 1148.54993899 -982.05938407 1137.0985012 -985.6315918 1125.54989624 C-986.1906089 1123.74488461 -986.75639523 1121.94197237 -987.32324219 1120.1394043 C-998.13870187 1085.62954938 -1005.62511325 1050.42210317 -1011.85516357 1014.83242798 C-1012.25750569 1012.55108671 -1012.66893508 1010.27158115 -1013.08349609 1007.99243164 C-1014.72017189 998.95904961 -1016.13268727 989.92490489 -1017.26660156 980.81201172 C-1017.39066879 979.82010834 -1017.39066879 979.82010834 -1017.51724243 978.8081665 C-1018.95691516 967.18764493 -1020.0323701 955.54668688 -1020.95410156 943.87451172 C-1021.01476807 943.1147403 -1021.07543457 942.35496887 -1021.13793945 941.57217407 C-1021.56014163 936.2173351 -1021.92878635 930.86030164 -1022.26660156 925.49951172 C-1022.34078812 924.36564026 -1022.34078812 924.36564026 -1022.41647339 923.2088623 C-1023.5659691 904.97851534 -1023.45400943 886.71189397 -1023.4519043 868.45361328 C-1023.45182327 864.83181744 -1023.45874351 861.21014872 -1023.47241211 857.58837891 C-1023.58331795 827.71823153 -1022.34939987 798.41892871 -1018.66210938 768.7421875 C-1018.24829724 765.34943888 -1017.85950632 761.95458103 -1017.47753906 758.55810547 C-1017.34790771 757.40793945 -1017.21827637 756.25777344 -1017.0847168 755.07275391 C-1016.84079622 752.90297161 -1016.59801588 750.73306064 -1016.35668945 748.56298828 C-1013.08192716 719.80829766 -1007.3282487 691.1596655 -1000.18457031 663.13476562 C-999.20764229 659.26602671 -998.2654255 655.38993455 -997.32910156 651.51123047 C-993.23965644 634.63946568 -988.62319535 618.01938761 -983.26660156 601.49951172 C-982.87134277 600.26217285 -982.47608398 599.02483398 -982.06884766 597.75 C-958.45023219 523.84024186 -924.59555036 453.49405738 -882.26660156 388.49951172 C-881.82155273 387.8153418 -881.37650391 387.13117188 -880.91796875 386.42626953 C-869.98645368 369.68392572 -858.39540051 353.39286831 -846.26660156 337.49951172 C-845.42919924 336.39416624 -844.59195365 335.288702 -843.75488281 334.18310547 C-834.1188572 321.50575155 -823.98937598 309.2171241 -813.64355469 297.11474609 C-812.2253881 295.45116629 -810.8158484 293.78055296 -809.40722656 292.10888672 C-803.13574792 284.69334339 -796.64930826 277.52124878 -789.98144531 270.46044922 C-787.44910828 267.77850161 -784.95784184 265.06240851 -782.47909546 262.33088684 C-776.68896303 255.96184328 -770.72100365 249.79835353 -764.62231445 243.72485352 C-763.06570767 242.17366445 -761.51459985 240.6171178 -759.96386719 239.06005859 C-755.15176229 234.2447533 -750.29564069 229.53473829 -745.11938477 225.10717773 C-741.79558734 222.22310789 -738.64131373 219.15759272 -735.45410156 216.12451172 C-730.05710925 211.02310776 -724.58750034 206.17072106 -718.77832031 201.54248047 C-716.17058616 199.42141521 -713.68608779 197.20350767 -711.20410156 194.93701172 C-706.39169231 190.56278102 -701.38460281 186.50873508 -696.26660156 182.49951172 C-695.2753125 181.71318359 -694.28402344 180.92685547 -693.26269531 180.11669922 C-678.40296251 168.34283909 -663.45604635 156.65251941 -647.68505859 146.11669922 C-644.78854081 144.17983936 -641.90114294 142.22963534 -639.01269531 140.28076172 C-572.25791524 95.333983 -500.68240966 59.04111866 -424.33691406 33.52929688 C-421.63084923 32.62168066 -418.93179552 31.69694499 -416.23535156 30.76123047 C-406.5366239 27.41738466 -396.73402375 24.63671862 -386.82128906 21.99951172 C-382.39983982 20.81922913 -378.01069849 19.55186969 -373.6237793 18.25 C-360.98626397 14.52288476 -348.20471643 11.65731184 -335.31781006 8.93499756 C-333.144314 8.47354922 -330.97221842 8.00589245 -328.80029297 7.53710938 C-306.05637041 2.6363017 -283.34272235 -1.52497209 -260.26660156 -4.50048828 C-258.87825434 -4.68244782 -257.48990799 -4.86441397 -256.1015625 -5.04638672 C-172.09858855 -15.95047733 -83.47171362 -15.60924556 0 0 Z " fill="#0052FF" transform="translate(1395.2666015625,382.50048828125)"/>
</svg>
